<svg width="683" height="683" viewBox="0 0 683 683" fill="none" xmlns="http://www.w3.org/2000/svg">
<path d="M340.591 413.235C330.247 426.827 320.311 432.943 313.096 432.943C305.065 432.943 303.84 423.7 303.84 414.459C303.84 382.247 329.157 355.065 339.095 328.426C340.319 324.756 341 321.63 341 319.728C341 305.456 314.321 288.876 312.416 288.876C317.452 299.884 287.642 319.184 218.223 444.087C217.679 444.087 217.679 444.087 217.679 444.767C217.679 400.867 290.093 252.859 301.935 228.802C303.84 223.23 305.065 217.658 305.065 212.765C305.065 194.145 272.125 184.903 270.356 183C270.356 187.893 267.906 196.048 265.319 203.387C263.55 207.736 262.325 212.765 260.964 216.978C253.613 236.821 191 389.043 191 450.339C191 471.949 201.481 478.745 211.417 478.745C220.809 478.745 229.385 472.629 232.515 462.707C237.416 444.087 262.325 397.062 280.292 364.306C275.936 378.578 274.031 387.819 274.031 402.634C274.031 429.272 288.868 451.563 308.06 451.563C322.216 451.563 334.738 440.689 344.403 427.37C351.072 442.864 365.365 455.232 383.06 455.232C394.902 455.232 404.838 451.563 412.869 449.116C419.676 468.823 435.737 478.201 436.962 478.201C437.643 478.201 438.323 477.521 438.323 475.754C438.323 475.076 422.805 464.61 418.45 446.669C438.323 439.738 491 412.555 491 389.722C491 382.927 486.645 379.801 482.288 377.898C480.383 377.354 478.614 377.354 474.257 376.674C453.704 376.674 409.738 388.499 409.738 433.622C404.157 435.524 399.257 436.068 393.677 436.068C379.385 436.068 364.548 429.952 364.548 413.235C364.548 367.977 484.195 325.98 488.414 312.388C489.095 310.485 489.638 308.039 489.638 304.234C489.638 297.438 487.869 291.322 485.964 285.75C484.738 282.624 483.514 278.954 482.833 275.828C468.677 290.099 447.579 293.088 425.256 293.088C400.483 293.088 362.098 289.419 350.256 284.526C349.712 285.75 349.712 286.973 349.712 288.876V299.884C349.712 310.485 349.712 321.63 371.354 321.63C380.61 321.63 403.614 316.057 423.35 309.263C400.483 324.756 369.448 350.036 342.769 394.071C341 397.741 340.319 402.634 340.319 408.206C340.319 409.973 340.455 411.604 340.591 413.235ZM418.45 430.496C423.35 406.439 446.354 393.391 465.546 392.713C467.452 393.391 467.997 394.615 467.997 395.838C467.997 410.653 430.156 425.603 418.45 430.496Z" fill="black"/>
</svg>
